<svg width="24" height="24" viewBox="0 0 24 24" fill="none" xmlns="http://www.w3.org/2000/svg">
<path d="M22.1839 11.836L13.1276 2.78443L12.5206 2.1774C12.3823 2.04 12.1952 1.96289 12.0003 1.96289C11.8053 1.96289 11.6183 2.04 11.48 2.1774L1.8167 11.836C1.67497 11.9772 1.56297 12.1453 1.48729 12.3305C1.41161 12.5156 1.3738 12.7141 1.37607 12.9141C1.38545 13.7391 2.07217 14.3977 2.89717 14.3977H3.89326V22.0313H20.1073V14.3977H21.1245C21.5253 14.3977 21.9026 14.2407 22.1862 13.9571C22.3259 13.8179 22.4365 13.6524 22.5117 13.4701C22.587 13.2879 22.6253 13.0925 22.6245 12.8954C22.6245 12.4969 22.4675 12.1196 22.1839 11.836V11.836ZM13.3128 20.3438H10.6878V15.5626H13.3128V20.3438ZM18.4198 12.7102V20.3438H14.8128V15.0001C14.8128 14.4821 14.3933 14.0626 13.8753 14.0626H10.1253C9.60732 14.0626 9.18779 14.4821 9.18779 15.0001V20.3438H5.58076V12.7102H3.33076L12.0026 4.04537L12.544 4.58678L20.6722 12.7102H18.4198Z" fill="#00CCBC"/>
</svg>
