<svg width="50" height="50" viewBox="0 0 50 50" fill="none" xmlns="http://www.w3.org/2000/svg">
<path d="M14.5833 22.9166V27.0833H35.4167V22.9166H14.5833ZM25 4.16663C13.5 4.16663 4.16666 13.5 4.16666 25C4.16666 36.5 13.5 45.8333 25 45.8333C36.5 45.8333 45.8333 36.5 45.8333 25C45.8333 13.5 36.5 4.16663 25 4.16663ZM25 41.6666C15.8125 41.6666 8.33332 34.1875 8.33332 25C8.33332 15.8125 15.8125 8.33329 25 8.33329C34.1875 8.33329 41.6667 15.8125 41.6667 25C41.6667 34.1875 34.1875 41.6666 25 41.6666Z" fill="#00CCBC"/>
</svg>
