<svg width="30" height="30" viewBox="0 0 30 30" fill="none" xmlns="http://www.w3.org/2000/svg">
<path d="M5.625 28.125H16.875C17.3721 28.1245 17.8488 27.9268 18.2003 27.5753C18.5518 27.2238 18.7495 26.7471 18.75 26.25V23.4375H16.875V26.25H5.625V3.75H16.875V6.5625H18.75V3.75C18.7495 3.25287 18.5518 2.77625 18.2003 2.42472C17.8488 2.0732 17.3721 1.8755 16.875 1.875H5.625C5.12787 1.8755 4.65125 2.0732 4.29972 2.42472C3.9482 2.77625 3.7505 3.25287 3.75 3.75V26.25C3.7505 26.7471 3.9482 27.2238 4.29972 27.5753C4.65125 27.9268 5.12787 28.1245 5.625 28.125Z" fill="#CC3A2F"/>
<path d="M19.2994 19.2994L22.6613 15.9375H9.375V14.0625H22.6613L19.2994 10.7006L20.625 9.375L26.25 15L20.625 20.625L19.2994 19.2994Z" fill="#CC3A2F"/>
</svg>
