<svg width="40" height="40" viewBox="0 0 40 40" fill="none" xmlns="http://www.w3.org/2000/svg">
<path d="M27.9352 17.4953C28.7565 17.4976 29.57 17.3369 30.3288 17.0226C31.0876 16.7082 31.7764 16.2465 32.3555 15.6641L38.3711 9.65236C38.8469 9.17658 38.8906 8.40236 38.4375 7.90314C38.3238 7.77772 38.1857 7.67672 38.0317 7.60626C37.8778 7.5358 37.7111 7.49736 37.5418 7.49327C37.3725 7.48918 37.2042 7.51952 37.047 7.58246C36.8898 7.6454 36.747 7.73961 36.6274 7.85939L31.2656 13.2172C31.0856 13.397 30.8416 13.498 30.5871 13.498C30.3327 13.498 30.0886 13.397 29.9086 13.2172C29.5344 12.8438 29.5547 12.2125 29.9281 11.8391L35.2664 6.5008C35.3861 6.38113 35.4802 6.23841 35.5431 6.08129C35.6059 5.92417 35.6362 5.75592 35.6321 5.58674C35.628 5.41756 35.5896 5.25097 35.5193 5.09707C35.4489 4.94318 35.348 4.80517 35.2227 4.69142C34.9965 4.48624 34.7015 4.37334 34.3961 4.37502C34.05 4.37526 33.7181 4.51295 33.4735 4.75783L28.1399 10.0906C27.9598 10.2705 27.7158 10.3714 27.4614 10.3714C27.2069 10.3714 26.9629 10.2705 26.7828 10.0906C26.4094 9.71721 26.4289 9.08596 26.8024 8.71252L32.1406 3.3758C32.2603 3.25613 32.3544 3.11341 32.4173 2.95629C32.4801 2.79917 32.5105 2.63092 32.5064 2.46174C32.5023 2.29256 32.4639 2.12597 32.3935 1.97207C32.3231 1.81818 32.2222 1.68017 32.0969 1.56642C31.8707 1.36124 31.5757 1.24834 31.2703 1.25002C30.9242 1.25043 30.5924 1.3881 30.3477 1.63283L24.336 7.64455C23.7535 8.22374 23.2917 8.91274 22.9774 9.67163C22.6631 10.4305 22.5024 11.2442 22.5047 12.0656V12.7086C22.5048 12.873 22.4725 13.0358 22.4097 13.1877C22.3468 13.3396 22.2546 13.4776 22.1383 13.5938L19.3563 16.3766C19.3273 16.4056 19.2928 16.4287 19.2548 16.4444C19.2169 16.4601 19.1762 16.4682 19.1352 16.4682C19.0941 16.4682 19.0534 16.4601 19.0155 16.4444C18.9776 16.4287 18.9431 16.4056 18.9141 16.3766L5.37659 2.8383C5.14294 2.60439 4.82614 2.47256 4.49553 2.47169C4.16491 2.47081 3.84741 2.60094 3.61253 2.83361C2.42893 4.00627 1.7969 5.66174 1.7969 7.62033C1.78909 10.8547 3.48909 14.5735 6.23362 17.3141L12.9094 23.9899C13.8582 24.9368 15.1439 25.4686 16.4844 25.4688C16.9117 25.4689 17.3374 25.4143 17.7508 25.3063C17.8546 25.2791 17.9615 25.2652 18.0688 25.2649C18.3826 25.2649 18.6848 25.3835 18.9149 25.5969L19.8047 26.4188C20.0342 26.6532 20.1632 26.968 20.1641 27.2961V27.7289C20.1618 28.7128 20.5485 29.6578 21.2399 30.3578L28.275 37.5117L28.2821 37.5196C29.0629 38.3003 30.1219 38.7389 31.2261 38.7388C32.3303 38.7387 33.3892 38.3 34.1699 37.5192C34.9507 36.7383 35.3892 35.6793 35.3892 34.5751C35.3891 33.4709 34.9504 32.412 34.1696 31.6313L23.6242 21.086C23.5952 21.0569 23.5721 21.0225 23.5564 20.9845C23.5407 20.9466 23.5326 20.9059 23.5326 20.8649C23.5326 20.8238 23.5407 20.7831 23.5564 20.7452C23.5721 20.7073 23.5952 20.6728 23.6242 20.6438L26.4063 17.8617C26.5224 17.7456 26.6602 17.6534 26.812 17.5905C26.9637 17.5277 27.1264 17.4953 27.2906 17.4953H27.9352Z" fill="#00CCBC"/>
<path d="M16.4843 27.9687C14.483 27.9646 12.564 27.1716 11.1437 25.7617L10.0608 24.6789C9.94367 24.562 9.78493 24.4963 9.61943 24.4963C9.45393 24.4963 9.29519 24.562 9.17803 24.6789L2.5374 31.2851C1.35381 32.4687 0.931151 34.2109 1.51709 35.9171C1.54988 36.0133 1.58876 36.1072 1.6335 36.1984C2.42178 37.8125 3.95146 38.75 5.6249 38.75C6.2004 38.7514 6.77045 38.6386 7.30205 38.4181C7.83364 38.1976 8.3162 37.8739 8.72178 37.4656L17.578 28.5671C17.6153 28.5291 17.6438 28.4834 17.6617 28.4332C17.6795 28.383 17.6861 28.3295 17.6812 28.2765V28.2562C17.6777 28.2075 17.6644 28.16 17.642 28.1165C17.6197 28.0731 17.5888 28.0347 17.5512 28.0035C17.5136 27.9723 17.4701 27.9491 17.4233 27.9352C17.3765 27.9213 17.3273 27.917 17.2788 27.9226C17.015 27.9519 16.7497 27.9673 16.4843 27.9687V27.9687Z" fill="#00CCBC"/>
</svg>
