<svg width="31" height="31" viewBox="0 0 31 31" fill="none" xmlns="http://www.w3.org/2000/svg">
<path d="M15.3335 18.6667C23.6175 18.6667 30.3335 21.8007 30.3335 25.6667V30.6667H0.333496V25.6667C0.333496 21.8007 7.0495 18.6667 15.3335 18.6667ZM28.3335 25.6667C28.3335 22.9067 22.5135 20.6667 15.3335 20.6667C8.1535 20.6667 2.3335 22.9067 2.3335 25.6667V28.6667H28.3335V25.6667ZM15.3335 0.666687C17.19 0.666687 18.9705 1.40419 20.2832 2.71694C21.596 4.02969 22.3335 5.81017 22.3335 7.66669C22.3335 9.5232 21.596 11.3037 20.2832 12.6164C18.9705 13.9292 17.19 14.6667 15.3335 14.6667C13.477 14.6667 11.6965 13.9292 10.3837 12.6164C9.07099 11.3037 8.3335 9.5232 8.3335 7.66669C8.3335 5.81017 9.07099 4.02969 10.3837 2.71694C11.6965 1.40419 13.477 0.666687 15.3335 0.666687ZM15.3335 2.66669C14.0074 2.66669 12.7356 3.19347 11.798 4.13115C10.8603 5.06884 10.3335 6.3406 10.3335 7.66669C10.3335 8.99277 10.8603 10.2645 11.798 11.2022C12.7356 12.1399 14.0074 12.6667 15.3335 12.6667C16.6596 12.6667 17.9313 12.1399 18.869 11.2022C19.8067 10.2645 20.3335 8.99277 20.3335 7.66669C20.3335 6.3406 19.8067 5.06884 18.869 4.13115C17.9313 3.19347 16.6596 2.66669 15.3335 2.66669V2.66669Z" fill="#AAADAD"/>
</svg>
