<svg width="55" height="55" viewBox="0 0 55 55" fill="none" xmlns="http://www.w3.org/2000/svg">
<path d="M50.3809 17.1875H27.0703L16.2207 1.77419C15.791 1.03495 15.1823 0.62836 14.3945 0.554435C13.6068 0.48051 12.8548 0.739247 12.1387 1.33064C11.0645 2.51344 10.9928 3.69624 11.9238 4.87903L20.4102 17.1875H4.61914C3.33008 17.1875 2.23796 17.6495 1.34277 18.5736C0.447591 19.4976 0 20.588 0 21.8448V24.2843C0 26.3542 0.93099 27.7587 2.79297 28.498L9.13086 48.5685C9.41732 49.6035 9.99023 50.546 10.8496 51.3962C11.709 52.2463 12.6758 52.6714 13.75 52.6714H41.25C42.3242 52.6714 43.291 52.2463 44.1504 51.3962C45.0098 50.546 45.5827 49.6035 45.8691 48.5685L52.207 28.7198C54.069 27.9805 55 26.5759 55 24.506V22.0665C55 20.662 54.5524 19.4976 53.6572 18.5736C52.762 17.6495 51.6699 17.1875 50.3809 17.1875ZM4.61914 21.8448H23.8477L25.459 24.0625C25.6022 24.0625 25.6738 24.1364 25.6738 24.2843H4.61914V21.8448ZM41.4648 47.2379V47.4597C41.4648 47.5336 41.429 47.6075 41.3574 47.6815C41.2858 47.7554 41.25 47.8293 41.25 47.9032H13.9648C13.8216 47.9032 13.75 47.7554 13.75 47.4597L7.8418 28.9415H47.1582L41.4648 47.2379ZM29.541 24.2843C30.0423 23.3972 30.293 22.584 30.293 21.8448H50.3809V24.2843H29.541ZM16.0059 43.6895C16.0775 44.207 16.3639 44.6505 16.8652 45.0202C17.3665 45.3898 17.8678 45.5746 18.3691 45.5746H18.7988C19.3717 45.4267 19.8372 45.0571 20.1953 44.4657C20.5534 43.8743 20.625 43.2829 20.4102 42.6915L18.1543 33.2661C18.0111 32.6747 17.653 32.1942 17.0801 31.8246C16.5072 31.455 15.9342 31.381 15.3613 31.6028C14.7884 31.7507 14.3229 32.1203 13.9648 32.7117C13.6068 33.3031 13.5352 33.8575 13.75 34.375L16.0059 43.6895ZM36.2012 45.5746H36.6309C37.1322 45.5746 37.6335 45.3898 38.1348 45.0202C38.6361 44.6505 38.9225 44.207 38.9941 43.6895L41.25 34.1532C41.3932 33.5618 41.3037 32.9704 40.9814 32.379C40.6592 31.7876 40.2116 31.455 39.6387 31.381C38.1348 31.0853 37.2038 31.6398 36.8457 33.0444L34.5898 42.4698C34.1602 43.9483 34.6973 44.9832 36.2012 45.5746ZM27.5 45.5746C29.0039 45.5746 29.7559 44.7614 29.7559 43.1351V33.7097C29.7559 32.1573 29.0039 31.381 27.5 31.381C25.9961 31.381 25.2441 32.1573 25.2441 33.7097V43.1351C25.2441 44.7614 25.9961 45.5746 27.5 45.5746Z" fill="#AAADAD"/>
</svg>
