<svg width="24" height="24" viewBox="0 0 24 24" fill="none" xmlns="http://www.w3.org/2000/svg">
<path d="M19.5 22C19.8978 22 20.2794 21.842 20.5607 21.5607C20.842 21.2794 21 20.8978 21 20.5C21 20.1022 20.842 19.7206 20.5607 19.4393C20.2794 19.158 19.8978 19 19.5 19C19.1022 19 18.7206 19.158 18.4393 19.4393C18.158 19.7206 18 20.1022 18 20.5C18 20.8978 18.158 21.2794 18.4393 21.5607C18.7206 21.842 19.1022 22 19.5 22ZM9.5 22C9.89782 22 10.2794 21.842 10.5607 21.5607C10.842 21.2794 11 20.8978 11 20.5C11 20.1022 10.842 19.7206 10.5607 19.4393C10.2794 19.158 9.89782 19 9.5 19C9.10218 19 8.72064 19.158 8.43934 19.4393C8.15804 19.7206 8 20.1022 8 20.5C8 20.8978 8.15804 21.2794 8.43934 21.5607C8.72064 21.842 9.10218 22 9.5 22Z" fill="#00CCBC" stroke="#00CCBC" stroke-width="1.5" stroke-linecap="round" stroke-linejoin="round"/>
<path d="M16.5 4H22L20 15H15.5M16.5 4L15.5 15M16.5 4H10.75M15.5 15H11.5M10.75 4H5L7 15H11.5M10.75 4L11.5 15M5 4C4.833 3.333 4 2 2 2M20 15H5.23C3.446 15 2.5 15.781 2.5 17C2.5 18.219 3.446 19 5.23 19H19.5" stroke="#00CCBC" stroke-width="1.5" stroke-linecap="round" stroke-linejoin="round"/>
</svg>
