<svg xmlns="http://www.w3.org/2000/svg" viewBox="0 0 827.95 1022.72"><g clip-path="url(#clip0)"><path d="M217.092 905.69c.72 4.3 8.35 6.73 11.86 9.37a15.354 15.354 0 0011.91 2.86 15.184 15.184 0 0010.42-6.34 14.31 14.31 0 003.06-7.55c.113-.872.137-1.753.07-2.63a15.838 15.838 0 00-.17-1.74l2.74-.48-9.53-59.57-41.59 6.3 11.23 59.78z" fill="#F14E56"/><path d="M266.922 873.48h-60.99l-39.11-380.3h97.78l2.32 380.3z" fill="#9B006C"/><path d="M135.902 687.16l-66.46-13.47 27.09-187.01 116.09 18.53-76.72 181.95z" fill="#9B006C"/><path d="M109.872 928.85c1 4.25 8.77 6.16 12.45 8.57a15.359 15.359 0 0012.07 2.06 15.108 15.108 0 0010-7 14.212 14.212 0 002.55-7.74c.058-.874.024-1.752-.1-2.62a16.604 16.604 0 00-.29-1.73l2.71-.66-3.81-64.46-41.08 9 5.5 64.58z" fill="#F14E56"/><path d="M139.492 909.68l-2.18 22.68 23.87-5-3.5-31.18c-6 6.14-12.063 10.627-18.19 13.46v.04zM10.022 947l47.82-1 49.66-8.81c-.666-5.147-2.766-8.637-6.3-10.47-6.346-3.52-17.567-2.313-33.66 3.62-15.026 5.46-24.786 5.17-29.28-.87a11.56 11.56 0 01-1.66-3.15l-16.09 7.17c-5.973 2.767-9.47 7.27-10.49 13.51z" fill="#999"/><path d="M107.452 937.24l29.86-4.88 23.87-5 1.84 16.25-.35.08-104.88 2.36 49.66-8.81z" fill="#FABE00"/><path d="M89.792 902.2c15.21 11.6 35.19 14.1 49.7 7.48 6.12-2.827 12.184-7.313 18.19-13.46-.226-6.56-3.783-8.737-10.67-6.53-12.63 11.23-33.51 11.38-41.57 5.59l-15.65 6.92zm-68.28 55.11l128-.08c10.2-.1 14.57-4.613 13.11-13.54l-104.83 2.36-47.77.95c-.9 6.453 2.93 9.89 11.49 10.31z" fill="#fff"/><path d="M38.212 929.52a11.56 11.56 0 01-1.66-3.15l53.24-24.17c15.21 11.6 35.19 14.1 49.7 7.48l-2.18 22.68-29.86 4.88c-.666-5.147-2.766-8.637-6.3-10.47-6.346-3.52-17.566-2.313-33.66 3.62-15.026 5.46-24.786 5.17-29.28-.87z" fill="#440063"/><path d="M57.662 928.3a3.503 3.503 0 01-3-1.63l-4.54-7.2a3.495 3.495 0 015.91-3.73l4.55 7.2a3.497 3.497 0 01-1.21 4.888 3.504 3.504 0 01-1.79.472h.08zm14-5.86a3.51 3.51 0 01-2.95-1.61l-4.54-7.11a3.496 3.496 0 01-.268-4.178 3.488 3.488 0 013.929-1.446 3.5 3.5 0 012.19 1.904l4.54 7.11a3.487 3.487 0 01-1.157 4.893c-.54.32-1.156.488-1.784.487l.04-.05zm13.36-6.38a3.486 3.486 0 01-3-1.66l-4.45-7.2a3.495 3.495 0 01.138-3.877 3.49 3.49 0 015.802.207l4.51 7.19a3.5 3.5 0 01-3 5.34z" fill="#fff"/><path d="M160.492 874.02l-67.74 4.46-23.33-206.33 67.75-4.46 23.32 206.33z" fill="#9B006C"/><path d="M199.353 941.64h73.67V946a9.478 9.478 0 01-9.48 9.48h-54.7a9.48 9.48 0 01-9.48-9.48v-4.31l-.01-.05z" fill="#fff"/><path d="M256.603 895h-40.86a8.761 8.761 0 00-8.59 7.07l-7.8 39.55h73.67l-7.8-39.57a8.772 8.772 0 00-8.62-7.05z" fill="#440063"/><path d="M236.183 923.17c-21.75 0-31.22 7.23-36.81 18.46h73.66c-5.61-11.24-15.1-18.46-36.85-18.46z" fill="#999"/><path d="M220.932 920.58a3.503 3.503 0 01-3.5-3.5 3.503 3.503 0 013.5-3.5l30.51-.06a3.502 3.502 0 012.475 5.975 3.502 3.502 0 01-2.475 1.025l-30.51.06zm2.41-11.94a3.503 3.503 0 01-3.5-3.5 3.503 3.503 0 013.5-3.5l25.44-.09a3.502 3.502 0 012.475 5.975 3.502 3.502 0 01-2.475 1.025l-25.44.09zM221.662 895h-5.92a8.76 8.76 0 00-8.59 7.07l-1.29 6.51a26.715 26.715 0 0015.8-13.58zM266.462 908.43l-1.25-6.36a8.766 8.766 0 00-8.61-7.07h-5.41a26.623 26.623 0 0015.27 13.43z" fill="#fff"/><path d="M231.702 119.49h-102.25c-5.329 0-9.65 4.32-9.65 9.65v.58c0 5.33 4.321 9.65 9.65 9.65h102.25a9.65 9.65 0 009.65-9.65v-.58a9.65 9.65 0 00-9.65-9.65z" fill="#450063"/><path d="M225.632 122.61c5.512 0 9.98-4.468 9.98-9.98 0-5.512-4.468-9.98-9.98-9.98-5.511 0-9.98 4.468-9.98 9.98 0 5.512 4.469 9.98 9.98 9.98zM136.202 122.61c5.512 0 9.98-4.468 9.98-9.98 0-5.512-4.468-9.98-9.98-9.98-5.511 0-9.98 4.468-9.98 9.98 0 5.512 4.469 9.98 9.98 9.98z" fill="#450063"/><path d="M236.582 232.39a23.906 23.906 0 0110.82-15.77 24.992 24.992 0 0118.841-3.492A24.988 24.988 0 01282.022 224l63.15 95.1a24.34 24.34 0 013.45 18.8 23.897 23.897 0 01-10.83 15.71 25.01 25.01 0 01-18.835 3.519 24.993 24.993 0 01-15.795-10.849l-63.14-95.1a24.213 24.213 0 01-3.44-18.79z" fill="#FEFFFF"/><path d="M350.682 335.94c0-13.851-11.226-25.08-25.075-25.08-13.848 0-25.075 11.229-25.075 25.08v75.98c0 13.851 11.227 25.08 25.075 25.08 13.849 0 25.075-11.229 25.075-25.08v-75.98z" fill="#FEFFFF"/><path d="M326 437c13.807 0 25-11.193 25-25s-11.193-25-25-25-25 11.193-25 25 11.193 25 25 25z" fill="#440064"/><path d="M122.412 233.52a23.923 23.923 0 00-10.08-16.25 25.007 25.007 0 00-18.664-4.391A24.99 24.99 0 0077.382 223L4.692 323.9a24.356 24.356 0 00-4.31 18.62 23.906 23.906 0 0010.08 16.2 24.216 24.216 0 0018.65 4.38 23.995 23.995 0 0016.29-10.1l72.69-100.88a24.23 24.23 0 004.071-8.856c.742-3.198.827-6.513.249-9.744z" fill="#FEFFFF"/><path d="M281.032 562.93H69.092l33-350.39h157.09l21.85 350.39z" fill="#FEFFFF"/><path d="M273.272 493.14l-7.46-155.77-172.69 44.83M140.662 345.87a23.888 23.888 0 005.54-18.3 24.992 24.992 0 00-17.68-21.489 24.988 24.988 0 00-9.73-.931l-96.3 8.39a24.351 24.351 0 00-16.83 9.06 24 24 0 00-5.5 18.27 24.2 24.2 0 009 16.9 24 24 0 0018.33 5.55l96.3-8.39a24.21 24.21 0 0016.87-9.06z" fill="#FEFFFF"/><path d="M254.882 683.33H92.362l24.94-406.81 125.06.7 12.52 406.11z" fill="#450063"/><path d="M121.442 354.81c13.752 0 24.9-11.148 24.9-24.9 0-13.752-11.148-24.9-24.9-24.9-13.752 0-24.9 11.148-24.9 24.9 0 13.752 11.148 24.9 24.9 24.9z" fill="#440064"/><path d="M216.862 71.61a9.779 9.779 0 00-3.28-4.56 9.08 9.08 0 00-5.2-2l-51.36-4.67a9.902 9.902 0 00-10.84 9.12 9.104 9.104 0 001.61 6.43 6.848 6.848 0 00-.68.78l-11 13.2c-.89 1.21.88 2.45.55 3.89-.33 1.44-2.57 7.06-2.27 8.57l7.31 34.5c.212 1.3.698 2.54 1.426 3.638a9.285 9.285 0 002.794 2.732 9.562 9.562 0 007.41 1.48 9.279 9.279 0 006.38-4.22 9.996 9.996 0 001.62-7.46l-6.68-34 8-9.67c.119-.115.22-.246.3-.39l37.33-4.56 6.72 18.45-6.42 30a9.291 9.291 0 001.44 7.53 10.233 10.233 0 006.28 4.32 9.667 9.667 0 007.55-1.38 10.146 10.146 0 004.32-6.28l7.55-34.69c.36-1.87-.4-1.84-1-3.58l-9.86-27.18z" fill="#450063"/><path d="M136.182 119.77a9.636 9.636 0 00-6.65 4.66 9.416 9.416 0 00-1.39 7.88l4.82 21.54a10.642 10.642 0 0012.7 8 10.932 10.932 0 006.7-4.61 10.59 10.59 0 001.34-8.09l-5-21.54a9.884 9.884 0 00-4.61-6.49 9.99 9.99 0 00-7.91-1.35zM228.572 124.43a9.79 9.79 0 00-6.7-4.66 9.996 9.996 0 00-7.93 1.39 9.94 9.94 0 00-4.61 6.49l-4.93 21.54a10.446 10.446 0 001.29 8.09 11.002 11.002 0 006.7 4.61 10.64 10.64 0 0012.7-8l4.82-21.54a9.46 9.46 0 00-1.34-7.92z" fill="#C87D5D"/><path d="M150.762 169.23v47h59.75v-47h-59.75z" fill="#986B56"/><path d="M191.022 78.72h-20.76a26.108 26.108 0 00-19.24 8 25.633 25.633 0 00-8 18.6v62.17a25.837 25.837 0 008 18.59 26.189 26.189 0 0019.24 8h20.76a27.282 27.282 0 0027.11-26.58v-62.15a27.35 27.35 0 00-27.11-26.63z" fill="#C87D5D"/><path d="M129.032 186.44v33.86h104.12v-33.86l-51.47 31.26-52.65-31.26z" fill="#FEFFFF"/><path d="M127.332 206.7l-17.588 1.896 7.69 71.366 17.588-1.895-7.69-71.367zM232.457 206.725l-7.689 71.367 17.588 1.895 7.69-71.367-17.589-1.895zM276.432 443.27L79.202 443l1.16-19.04 194.91.27 1.16 19.04z" fill="#450063"/><path d="M224.922 101.89c-6.65-6.83-26.84-11.66-45.45-11.61-17.72 0-35.37 5.33-42.48 11.77-1.05 1-1.88.78-2.43.37a2.204 2.204 0 01-.647-.796 2.203 2.203 0 01-.213-1.004V64.24h94.78v36.24c0 1.89-1.93 3.09-3.56 1.41z" fill="#FEFFFF"/><path d="M134.322 65.19c-.52-.19-13.36-14.62-23.3-27.33-6.11-7.77-2.36-18 6.17-22.85C131.022 7.1 140.892 0 172.872 0c51.22 0 78.53 35.79 81.9 39.22 3.37 3.43 4.73 11.15-7.34 18.87a227.056 227.056 0 00-19.68 14l-93.43-6.9z" fill="#FEFFFF"/><path d="M203.282 404.21a6.39 6.39 0 01-4.14-1.52l-57.12-48.42a6.416 6.416 0 01-2.241-4.358 6.4 6.4 0 013.453-6.221 6.408 6.408 0 014.884-.403 6.374 6.374 0 012.184 1.212l57.16 48.42a6.4 6.4 0 01-4.14 11.29h-.04z" fill="#8C9C9C"/><path d="M133.302 335.78a5.99 5.99 0 00-11.98 0v20.63a5.99 5.99 0 0011.98 0v-20.63z" fill="#C87D5D"/><path d="M145.092 341.44a5.99 5.99 0 00-11.98 0v20.63a5.99 5.99 0 0011.98 0v-20.63z" fill="#C87D5D"/><path d="M157.212 342.92a6.06 6.06 0 10-12.12 0v20.88a6.06 6.06 0 1012.12 0v-20.88z" fill="#C87D5D"/><path d="M163.392 381.6a6.86 6.86 0 01-1.42-.16 6.42 6.42 0 01-4.83-7.67c1.19-5.23 2.48-12.26 3-15.4l-8.39-24.19a6.405 6.405 0 013.955-8.145 6.4 6.4 0 018.145 3.955l8.94 25.76a6.51 6.51 0 01.26 3.19c-.07.43-1.82 10.46-3.46 17.67a6.418 6.418 0 01-6.2 4.99z" fill="#C87D5D"/><path d="M157.692 323.725l-34.952-14.577c-5.933-2.475-12.749.329-15.224 6.262l-3.014 7.227c-2.475 5.933.329 12.749 6.262 15.224l34.952 14.577c5.933 2.475 12.749-.329 15.224-6.262l3.014-7.227c2.475-5.933-.329-12.749-6.262-15.224z" fill="#C87D5D"/><path d="M116.642 307.78h-37.87c-6.428 0-11.64 5.211-11.64 11.64v7.83c0 6.429 5.212 11.64 11.64 11.64h37.87c6.429 0 11.64-5.211 11.64-11.64v-7.83c0-6.429-5.211-11.64-11.64-11.64z" fill="#C87D5D"/><path d="M224.722 389.56s68.35-.26 68.35 0c0 37.49-30.85 68.34-68.35 68.34-37.5 0-68.34-30.85-68.34-68.34h68.34z" fill="#AEBABA"/><path d="M269.372 393.47l13-.16a5.421 5.421 0 011.72.25l.62.2 23.54 7.44a8.024 8.024 0 11-6.06 14.8l-22-11.21 2.33.45-13 .15a5.995 5.995 0 01-4.697-1.426 5.994 5.994 0 01-1.564-6.916 5.996 5.996 0 016.121-3.578h-.01z" fill="#C87D5D"/><path d="M273.142 421.66h-35a6.003 6.003 0 01-5.352-5.965 6 6 0 015.352-5.965h34.11l21.58-6.16a5.997 5.997 0 016.947 1.604 6.01 6.01 0 011.202 2.222 6.012 6.012 0 01-.693 4.89 5.996 5.996 0 01-4.126 2.714l-22.38 6.4a6.118 6.118 0 01-1.64.26z" fill="#C87D5D"/><path d="M274.642 433.64h-35a6.003 6.003 0 01-5.352-5.965 6 6 0 015.352-5.965h34.11l21.58-6.16a5.997 5.997 0 013.33 11.45l-22.39 6.4a5.991 5.991 0 01-1.63.24z" fill="#C87D5D"/><path d="M281.382 443.37h-35a5.99 5.99 0 01-4.682-1.479 6.001 6.001 0 014.682-10.441h34.11l21.58-6.17a5.997 5.997 0 016.786 4.264 6.003 6.003 0 01-3.506 7.206l-22.33 6.4a6.14 6.14 0 01-1.64.22z" fill="#C87D5D"/><path d="M258.272 451.86a6 6 0 01-2.05-11.56l23.1-8.49a6.002 6.002 0 017.022 8.047 6.002 6.002 0 01-2.912 3.153l-23.11 8.48c-.655.244-1.35.37-2.05.37z" fill="#C87D5D"/><path d="M321.103 395.157l-39.293 11.051c-8.812 2.478-13.93 11.687-11.433 20.568l.122.432c2.498 8.88 11.666 14.07 20.478 11.592l39.292-11.051c8.812-2.478 13.931-11.687 11.433-20.567l-.122-.432c-2.497-8.881-11.666-14.071-20.477-11.593z" fill="#C87D5D"/><path d="M342.072 402.57c0-8.599-6.968-15.57-15.565-15.57-8.596 0-15.565 6.971-15.565 15.57v9.93c0 8.599 6.969 15.57 15.565 15.57 8.597 0 15.565-6.971 15.565-15.57v-9.93z" fill="#C87D5D"/><path d="M562.096 635.535l34.364 9.846-37.834 117.339-34.724.296 38.194-127.481z" fill="#725446"/><path d="M535.252 818.917l22.147.083 6.514-60.811h-49.608c-.239 20.424-10.655 33.303-31.245 38.637-15.133 5.235-25.486 12.466-31.06 21.694l67.362.259 14.958-19.794.932 19.932z" fill="#450063"/><path d="M572.855 467.729a12.577 12.577 0 016.865 1.385 12.575 12.575 0 015.057 4.844l7.115 12.365c.197.383.355.785.47 1.2l7.429 3.082c.899.35 1.691.929 2.297 1.679a5.896 5.896 0 011.098 2.648l2.437 17.404a5.447 5.447 0 01-4.734 6.265 5.27 5.27 0 01-4.06-1.061 5.402 5.402 0 01-1.652-2.002l.36 3.691a5.46 5.46 0 01-2.901 5.46 5.476 5.476 0 01-2.091.603 5.295 5.295 0 01-4.005-1.219 5.172 5.172 0 01-1.2-1.337 8.442 8.442 0 01-.923 1.541 5.534 5.534 0 01-3.783 1.965 5.244 5.244 0 01-4.005-1.209 5.782 5.782 0 01-1.19-1.264 7.24 7.24 0 01-.858 1.458 5.535 5.535 0 01-3.774 1.965 5.29 5.29 0 01-2.116-.185 5.288 5.288 0 01-1.871-1.005 5.41 5.41 0 01-2.039-3.774l-2.861-29.529-.535-11.913a12.55 12.55 0 0111.47-13.029v-.028z" fill="#725446"/><path d="M569.026 495.099h-1.513a22.97 22.97 0 01-15.786-7.787 22.97 22.97 0 01-5.632-16.676l8.573-132.15a23.6 23.6 0 01.424-3.11l24.398-119.342a22.97 22.97 0 0127.111-17.883 22.967 22.967 0 0117.883 27.111l-24.093 117.792-8.471 130.572a22.962 22.962 0 01-22.894 21.473z" fill="#00CCBD"/><path d="M687.703 417.281H594.31l-70.417 292.611 62.222 14.709 76.267-226.282" fill="#450063"/><path d="M694.292 674.42l33.856-1.845 4.54 87.663-33.93 2.768-4.466-88.586z" fill="#725446"/><path d="M740.292 818.456l-2.243-64.336h-42.853l2.242 64.336h42.854z" fill="#450063"/><path d="M764.847 798.745a34.88 34.88 0 00-25.34-10.473 34.508 34.508 0 00-25.348 10.473 34.143 34.143 0 00-10.206 19.618h71.053a35.12 35.12 0 00-10.15-19.618M727.641 417.281l28.172 305.677-82.929 4.54-14.017-306.092" fill="#450063"/><path d="M628.341 196.02h70.435l-6.099 69.632h-64.336V196.02z" fill="#FABD01"/><path d="M727.641 417.281l-5.454-221.261h-23.411l-6.099 69.632h-64.336V196.02h-19.249l-14.764 221.261s14.386 38.194 66.375 38.194c51.989 0 66.938-38.194 66.938-38.194z" fill="#007E8A"/><path d="M696.396 302.147a10.869 10.869 0 01-10.741-10.741 10.42 10.42 0 013.183-7.64 10.274 10.274 0 017.558-3.101 10.6 10.6 0 0110.741 10.741 10.289 10.289 0 01-3.101 7.595 10.407 10.407 0 01-7.64 3.146zM622.583 298.419a10.445 10.445 0 01-7.65 3.184 10.887 10.887 0 01-10.741-10.741 10.432 10.432 0 013.193-7.65 10.27 10.27 0 017.548-3.091 10.556 10.556 0 0110.741 10.741 10.295 10.295 0 01-3.091 7.557z" fill="#FABE00"/><path d="M725.915 195.937c18.142 2.786 27.213 14.687 27.213 35.701l35.766 252.443-83.363.729V195.208h11.193a54.309 54.309 0 019.191.729z" fill="#00CCBD"/><path d="M747.24 496.64a22.967 22.967 0 01-22.857-25.395l13.381-125.774-30.452-118.4a22.97 22.97 0 0116.615-27.569 22.967 22.967 0 0127.863 16.117l31.503 122.433c.685 2.662.885 5.425.591 8.158l-13.842 129.898a22.96 22.96 0 01-22.802 20.532z" fill="#00CCBD"/><path d="M621.015 83.433A56.282 56.282 0 01662.022 66.6c15.995 0 29.661 5.61 40.999 16.832 11.338 11.22 16.967 24.917 16.887 41.09 0 16.057-5.629 29.726-16.887 41.008a55.793 55.793 0 01-40.999 17.016c-15.951 0-29.62-5.672-41.007-17.016-11.258-11.276-16.407-24.914-16.887-41.008-1.458-49.47 5.629-29.814 16.887-41.09z" fill="#450063"/><path d="M706.731 42.692a28.608 28.608 0 017.65 21.298 30.047 30.047 0 01-30.95 28.126 29.441 29.441 0 01-26.438-19.491 29.446 29.446 0 018.056-31.843 28.199 28.199 0 0121.113-7.733 29.666 29.666 0 0120.569 9.643z" fill="#450063"/><path d="M639.876 210.415v-37.64a21.738 21.738 0 0121.934-21.934h.092a21.925 21.925 0 0120.27 13.537 21.937 21.937 0 011.665 8.397v37.64M683.837 210.415a21.92 21.92 0 01-13.567 20.269 21.925 21.925 0 01-8.404 1.656h-.093a21.772 21.772 0 01-15.534-6.382 21.748 21.748 0 01-4.741-7.133 21.747 21.747 0 01-1.622-8.41" fill="#725446"/><path d="M621.264 107.194a36.147 36.147 0 0111.073-26.484 35.709 35.709 0 0126.216-10.833 36.196 36.196 0 0126.483 10.833 36.592 36.592 0 0110.834 26.484v41.589a37.084 37.084 0 01-22.934 34.514 37.079 37.079 0 01-40.599-8.298 35.06 35.06 0 01-11.073-26.216v-41.589z" fill="#725446"/><path d="M693.166 126.756l-2.279 13.528a8.434 8.434 0 001.725 6.737 9.174 9.174 0 006.007 3.368 9.56 9.56 0 0010.64-6.958c.074-.276.129-.557.166-.84l2.03-13.232a8.894 8.894 0 00-1.726-6.552 9.077 9.077 0 00-5.914-3.543 11.165 11.165 0 00-3.193.064 8.89 8.89 0 00-7.059 5.786 10.672 10.672 0 00-.397 1.606v.036zm-81.13 16.481a8.634 8.634 0 003.737 5.638 9.354 9.354 0 006.736 1.551 8.69 8.69 0 006.007-3.369 7.757 7.757 0 001.726-6.644l-2.095-13.564a7.763 7.763 0 00-3.691-5.823 9.429 9.429 0 00-6.92-1.55 9.761 9.761 0 00-4.762 1.984 8.086 8.086 0 00-2.418 3.137 9.097 9.097 0 00-.646 5.075l2.326 13.565z" fill="#725446"/><path d="M721.762 112.758c-.12-.129.074-1.929 0-2.002a41.518 41.518 0 00-6.736-24.39 39.676 39.676 0 00-23.383-16.683 170.293 170.293 0 00-55.615-1.255 41.293 41.293 0 00-24.915 15.567 42.332 42.332 0 00-9.228 23.9c-.286 3.211-.563 7.078-.627 7.207l37.003-5.961 16.222-20.929-.12 21.316 67.399 3.23z" fill="#450063"/><path d="M653.56 149.697c2.87-.105 5.692.759 8.01 2.454 2.178 1.763 3.276 3.793 3.276 6.1a7.383 7.383 0 01-3.276 6.099 12.142 12.142 0 01-8.01 2.639 12.721 12.721 0 01-8.102-2.639 7.373 7.373 0 01-3.275-6.099c0-2.307 1.092-4.34 3.275-6.1a13.4 13.4 0 018.102-2.454z" fill="#9A0D6D"/><path d="M577.829 231.639c0-23.488 11.381-35.592 34.142-36.311l10.335 289.482-62.12-17.533 17.643-235.638z" fill="#00CCBD"/><path d="M727.53 510.103l1.264-15.964 49.267 3.257-.129 15.041-50.402-2.334z" fill="#D6DDDD"/><path d="M715.958 533.44l-.055-27.868 13.075-12.624v40.602l47.551.425.923-37.299 12.586 15.881-.563 21.529" fill="#fff"/><path d="M680.754 665.22l133.424 1.172 1.172-133.857-125.516-1.098-9.08 133.783z" fill="#fff"/><path d="M736.896 590.338l24.5 5.435 5.721-12.559 2.897-25.404-9.837-1.126-1.956 17.219-2.962-14.552-9.698 1.975 2.953 14.506-13.98 2.851 2.362 11.655zm19.572-9.228a1.51 1.51 0 01.314-.729 1.55 1.55 0 011.052-.664 1.843 1.843 0 011.679.922 1.786 1.786 0 01-.212 1.846c-.369.637-1.338.71-2.279.231-.646-.323-.628-1.126-.554-1.606zm-6.884-1.467c.203-.766 1.144-.923 1.615-.923a1.2 1.2 0 01.517.111c.332.157.922.48 1.006.969a1.732 1.732 0 01-.517 1.762 1.794 1.794 0 01-1.846.166c-.747-.194-1.061-1.052-.775-2.085z" fill="#00CCBD"/><path d="M692.594 599.547l-4.457 65.673 126.041 1.172.6-68.497-64.991 33.358-57.193-31.706z" fill="#007E8A"/><path d="M814.501 629.786l-63.413 23.761-47.135 12.928 123.974 1.357-13.426-38.046z" fill="#007E8A"/><path d="M689.835 531.437l6.616 95.738 13.417 39.623-39.218-.341 11.978-39.402 7.207-95.618zM794.255 572.021l25.358.221c-6.515-7.862-9.163-17.763-9.071-27.969l.12-13.537-25.358-.222-.12 13.528c-.166 19.388 9.071 27.979 9.071 27.979z" fill="#D6DDDD"/><path d="M789.372 536.888l-.012 1.31 17.56.153.011-1.31-17.559-.153zM789.334 541.579l-.011 1.311 17.55.153.012-1.31-17.551-.154zM789.297 545.964l-.011 1.31 17.559.153.012-1.31-17.56-.153zM789.688 550.665l-.012 1.31 17.56.153.011-1.31-17.559-.153zM790.525 555.375l-.011 1.311 17.559.153.012-1.31-17.56-.154z" fill="#007E8A"/><path d="M756.505 467.295a12.549 12.549 0 00-10.667 8.241l-4.827 13.398c-.124.409-.207.83-.249 1.255l-6.764 4.347a5.427 5.427 0 00-1.965 2.067 5.74 5.74 0 00-.618 2.768l.673 17.533a5.533 5.533 0 001.763 3.894 5.469 5.469 0 003.995 1.43 5.278 5.278 0 003.821-1.753 5.614 5.614 0 001.273-2.261l.305 3.691a5.444 5.444 0 003.815 4.862 5.429 5.429 0 002.164.222 5.284 5.284 0 003.691-1.9c.39-.456.702-.974.923-1.532.34.493.733.948 1.172 1.356a5.533 5.533 0 004.069 1.274 5.262 5.262 0 003.691-1.91 6.03 6.03 0 00.923-1.449c.318.466.686.896 1.098 1.282a5.55 5.55 0 001.907 1.045 5.557 5.557 0 002.163.229 5.243 5.243 0 003.691-1.901 5.4 5.4 0 001.347-4.079l-2.399-29.528-1.606-11.858a12.54 12.54 0 00-13.583-10.796l.194.073z" fill="#725446"/><path d="M395.748 487l-5.25 166.09 21.33.68 5.26-166.09" fill="#FABD00"/><path d="M406.808 464.22a24.173 24.173 0 00-23.096 13.738 24.17 24.17 0 003.876 26.592 24.16 24.16 0 0035.86-32.38 23.296 23.296 0 00-16.64-7.95" fill="#00CCBF"/><path d="M454.878 823.68l-32.94-1.7.36 57.72 29.46 4.28 3.12-60.3z" fill="#fff"/><path d="M472.778 476.08l-59.92 2.95 9.08 342.94 32.94 1.71 17.9-347.6z" fill="#007E8A"/><path d="M450.758 874.74l-30.41 2.84 5.14 52.08 45.76 1.56-20.49-56.48z" fill="#91A6A6"/><path d="M478.428 319.37l58.46 129.88-53.7 130.29a18.172 18.172 0 006.81 22.13l22.06 14.56-12.69 27.52 33 15.25 19.24-41.72a18.159 18.159 0 00-6.5-22.81l-22.6-14.92 50.38-122.21a18.239 18.239 0 00.71-11.8l-60.14-135.9-35.03 9.73z" fill="#F96"/><path d="M278.788 244.01l38.37 164.14 169.64 23.01 85.73-125.29-293.74-61.86z" fill="#007E8A"/><path d="M323.328 73.36l-44.54 170.65 293.74 61.86 18.67-189.69-267.87-42.82z" fill="#65E3DB"/><path d="M381.608 683.09h-32.94l-.23 60.43 29.89-2.7 3.28-57.73z" fill="#fff"/><path d="M394.318 429.06l-62.95 4.09-11.08 168.81 25.55 81.3h32.94l11.06-89.45 4.48-164.75z" fill="#007E8A"/><path d="M378.738 738.76l-29.01-2.05-18.86 42.65 47.33 4.57.54-45.17z" fill="#91A6A6"/><path d="M432.378 940.28l4.79-92.74-62.65-3.19 3.5-67.54-21.32-1.11-4.6 88.88 62.65 3.2-3.69 71.4 21.32 1.1z" fill="#91A6A6"/><path d="M379.998 776.51l-59.53-2.71-.83 17.59 59.52 2.71.84-17.59zM466.678 943.91l.84-17.59-56.74-2.81-.84 17.59 56.74 2.81z" fill="#007D8A"/><path d="M369.928 873.84l3.76-210.87 50.65 2.27-9.58 212.72 21.33.96 10.54-234.05-93.9-4.21-4.15 232.8 21.35.38z" fill="#FABD00"/><path d="M506.548 523.03l-12.93 31.38 33.65 13.87 12.93-31.39" fill="#fff"/><path d="M509.358 460.56L497.028 512a32.003 32.003 0 0029.854 39.54 31.997 31.997 0 0018.006-4.72 31.097 31.097 0 0014.45-19.82l12.55-52.65-62.53-13.79z" fill="#00CCBF"/><path d="M510.608 298.89a31.994 31.994 0 00-18.457-2.067 31.994 31.994 0 00-23.913 43.297L511.808 450l-2.45 10.52 62.53 13.83 4.59-19.11a31.054 31.054 0 00-1.4-19.27l-47.34-119.42a31.348 31.348 0 00-17.13-17.66" fill="#91A6A6"/><path d="M497.208 405.81L315.668 417l7.35 56.76 119.41 16.59c28.2 3.96 44.243-8.153 48.13-36.34l6.65-48.2z" fill="#00CCBF"/><path d="M348.888 264c-28.18-3.887-44.253 8.263-48.22 36.45l15 116.6 181.54-11.2 10.68-76.74c3.96-28.187-8.157-44.263-36.35-48.23L348.888 264z" fill="#91A6A6"/><path d="M300.368 286.28l-72.29 133.55a18.135 18.135 0 00-.85 15.52l54.66 134.43-26.31 14.57a18.164 18.164 0 00-8.4 21.81l14.88 43.47 34.43-11.79-9.94-29 27.1-15a18.169 18.169 0 008-22.77l-57.47-141.48 68.2-126-32.01-17.31z" fill="#F96"/><path d="M287.618 688.21l11.15-71.73 200.46 2.48 11.38 65.08 25.24-4.42-15.05-86.01-243.92-3.02-14.57 93.68 25.31 3.94z" fill="#450063"/><path d="M297.228 585.34l-5.74 31.66a12.818 12.818 0 002.076 9.582 12.81 12.81 0 0023.134-5.012l5.74-31.69a12.81 12.81 0 00-25.21-4.57" fill="#F96"/><path d="M331.088 238.86l10.15 53.59 143.13 26.67 28.28-47.83-181.56-32.43z" fill="#91A6A6"/><path d="M301.838 517l-36.97 10.88 11.6 31.97 37.99-11.75-12.62-31.1z" fill="#fff"/><path d="M310.428 522.78a30.513 30.513 0 00-.54-24.45l-24.15-55.09-62.35 17.33 27.88 63.51a31.276 31.276 0 0017.73 17 31.994 31.994 0 0024.505-.552 32.006 32.006 0 0016.925-17.728" fill="#00CCBF"/><path d="M214.108 403.71a32.246 32.246 0 00-5 14.85 31.804 31.804 0 002.55 15.35l11.7 26.66 62.35-17.33-8.43-19.24 70.24-109.46a30.535 30.535 0 004.3-24 32.003 32.003 0 00-38-24.6 31.467 31.467 0 00-11.53 4.943 31.466 31.466 0 00-8.68 9.057l-79.5 123.77z" fill="#91A6A6"/><path d="M395.778 318.09l.36 167.03 17.08-.04-.37-167.02" fill="#007D8A"/><path d="M386.888 365.24l19.55 1.47v21.82l-28-1.48 8.45-21.81zm35.28 38l-3.6-63.51-29.51-3.42-23 57.67 56.11 9.26z" fill="#fff"/><path d="M367.561 195.658l-17.048 1.051 6.434 104.302 17.048-1.051-6.434-104.302zM494.292 224.548l-59.859 90.745 14.258 9.405 59.858-90.746-14.257-9.404z" fill="#007D8A"/><path d="M384.728 194.8a57.803 57.803 0 01-15.64 1.29l-12.38 87.06c-2.98 12.953-2.283 23.643 2.09 32.07.44.86.93 1.68 1.43 2.47a33.24 33.24 0 0019.19 14.54l31.62 9.92a34.112 34.112 0 0026.58-2.5c.5-.26 1-.54 1.45-.83a33.207 33.207 0 0015.46-19.89l33.93-77.49a258.286 258.286 0 00-12.15-26.95l-.12-.2-30.21 78.86-72.53-16.06 11.28-82.29z" fill="#450063"/><path d="M397.488 190.16a49.962 49.962 0 01-12.76 4.64l-11.28 82.3 72.53 16 30.21-78.86a34.108 34.108 0 00-20.4-16.93l-31.83-9.79a33.542 33.542 0 00-26.47 2.59" fill="#F96"/><path d="M411.508 186a34.582 34.582 0 00-14 4 50.161 50.161 0 01-12.44 4.67 49.93 49.93 0 0012.45-4.57 33.472 33.472 0 0126.47-2.59l31.83 9.8-31.83-9.8a35.01 35.01 0 00-12.48-1.51zm-42.42 10.09l-1.05 7.29v.05l1.05-7.34zm12.76-.72a56.93 56.93 0 01-5.91.67c-1.53.1-3.09.14-4.67.11 1.58 0 3.14 0 4.68-.11a56.172 56.172 0 005.9-.67" fill="#00A399"/><path d="M368.038 203.38l-5.16 35.97.06.01 5.1-35.93v-.05z" fill="#00666E"/><path d="M384.728 194.8c-.953.22-1.913.41-2.88.57a56.202 56.202 0 01-5.9.67c-1.54.1-3.1.13-4.69.11l-2.17-.06-1.05 7.34-5.1 35.93 15.32 2.64 6.47-47.18" fill="#38004F"/><path d="M488.458 241.44l-7.89 18.02.02.01 7.87-18.03z" fill="#00666E"/><path d="M476.148 214.4l-15.93 41.6 20.35 3.47 7.89-18a245.652 245.652 0 00-12.25-26.94l-.06-.1" fill="#38004F"/><path opacity=".1" d="M411.628 186a34.553 34.553 0 00-14.14 4.13 49.574 49.574 0 01-12.45 4.57l-.31.07-6.47 47.23 82 14 15.93-41.59a33.755 33.755 0 00-20.36-17l-31.83-9.8a34.777 34.777 0 00-12.37-1.61" fill="#000"/><path d="M344.538 195.14a71.524 71.524 0 00-1.92 10.49l174.11 39.84c1.08-3.2 2.08-6.577 3-10.13 5.5-24.147 1.644-46.793-11.57-67.94-13.2-21-31.867-34.25-56-39.75s-46.76-1.717-67.88 11.35c-21 13.207-34.247 31.92-39.74 56.14z" fill="#FA4F59"/><path d="M478.528 593.43l2.41 32.25a12.817 12.817 0 004.417 8.754 12.815 12.815 0 0018.067-1.351 12.819 12.819 0 003.066-9.313l-2.42-32.26a12.807 12.807 0 00-13.706-11.496 12.81 12.81 0 00-11.834 13.416z" fill="#F96"/><path d="M372.718 787.79l-6.46 125.63 17.05.88 6.47-125.63" fill="#91A6A6"/><path d="M389.648 677.41l-11.14 344.62 21.34.69 11.13-344.62" fill="#450063"/></g><defs><clipPath id="clip0"><path fill="#fff" d="M0 0h827.95v1022.72H0z"/></clipPath></defs></svg>