<svg xmlns="http://www.w3.org/2000/svg" width="598" height="598" viewBox="0 0 598 598" xmlns:xlink="http://www.w3.org/1999/xlink"><defs><path id="a" d="M2.903 149.076C0 140.444 0 134.818 0 114.766V59.234c0-20.052 0-25.68 2.903-34.31A37.02 37.02 0 0 1 24.924 2.901C33.556 0 39.182 0 59.234 0h55.532c20.052 0 25.678 0 34.311 2.901a37.022 37.022 0 0 1 22.02 22.023C174 33.554 174 39.182 174 59.234v55.532c0 20.052 0 25.678-2.903 34.31a37.012 37.012 0 0 1-22.02 22.021C140.444 174 134.818 174 114.767 174H59.233c-20.052 0-25.678 0-34.31-2.903a37.01 37.01 0 0 1-22.021-22.021z"/></defs><g fill="none" fill-rule="evenodd"><path fill="#E2004F" d="M-1 0h600v600H-1z"/><path fill="#FFF" d="M678.813 379.333l-71.471-22.003-2.801 71.907-12.216 3.649-18.14-85.76-42.934-13.22-17.406 67.736-11.624 2.78-3.1-80.408-48.299-14.873-29.079 67.295-8.475 1.588 2.313-74.264-72.844-3.76-45.682 30.447-3.317 48.368 18.785 27.695L627.36 507.155l75.054-25.367 14.067-51.08-37.668-51.375zm23.378 120.943l-97.135 40.54-45.546-37.109-52.745 7.275-42.457-44.997-59.814 2.74-44.677-36.44-70.026-6.73L287 454.298l63.772 10.785 38.852 33.232 65.172 4.986 45.242 38.045 49.227-1.482 49.689 33.723 113.287-47.465-10.05-25.846zm-407.628-27.958l1.732 31.395 10.657 20.365 271.544 104.288 50.129 6.885 47.582-14.645 22.84-30.82 3.383-34.236-75.874 31.529-33.884 3.676-298.11-118.437zM-32.085 153.252l2.355 43.644 264.455-5.205-.113-45.852-266.697 7.413zM-50 137.545l6.852-33.01 32.738 9.311 32.15-20.975 45.742 20.545 32.14-26.035 53.967 19.382 44.931-35.459 19.253 25.074-60.451 43.653-49.945-22.814-36.6 23.78-41.464-15.953-38.224 17.585L-50 137.545zM162.757-10L-6.837 14.398l-30.187 79.764c-1.13.193 257.607-38.798 257.607-38.798L162.757-10zM-43.148 213.926l49.083 70.28 177.241-6.376 43.867-73.083c1.147-.048-270.191 9.179-270.191 9.179z" opacity=".363"/><g transform="translate(214 216)"><mask id="b" fill="#fff"><use xlink:href="#a"/></mask><use fill="#333" xlink:href="#a"/><g mask="url(#b)"><path fill="#00CCBC" d="M0 0h174v174H0z"/><path fill="#FFF" d="M77.451 97.95c.624-2.4 3.564-2.758 5.036-2.784a3.755 3.755 0 0 1 1.616.332c1.04.47 2.802 1.477 3.158 3.01.514 2.206.019 4.057-1.563 5.503-1.582 1.445-3.672 1.313-5.886.576-2.216-.733-3.199-3.407-2.36-6.637zm21.533 4.376c.12-.828.45-1.608.97-2.264.714-.904 1.906-2.08 3.282-2.118 2.238-.058 4.164.945 5.252 2.758 1.09 1.811.545 3.806-.605 5.802-1.15 1.991-4.163 2.255-7.127.805-2-.978-1.99-3.467-1.772-4.983zM38.15 131.637l76.63 16.263 17.526-39.302 8.345-79.273-30.738-3.225-5.653 53.707L94.62 34.53l-30.23 6.416 9.638 45.277-43.578 9.248 7.699 36.166z"/></g></g></g></svg>