<svg width="800" height="800" viewBox="0 0 800 800" xmlns="http://www.w3.org/2000/svg" xmlns:xlink="http://www.w3.org/1999/xlink"><title>lightgrey-bg copy</title><defs><path id="a" d="M0 0h800v800H0z"/></defs><g fill="none" fill-rule="evenodd"><mask id="b" fill="#fff"><use xlink:href="#a"/></mask><use fill="#E8EBEB" xlink:href="#a"/><g opacity=".6" mask="url(#b)" fill="#D1D7D7"><path d="M267.578 281.303l-79.056-4.89 5.312-11.051-10.426-13.969-17.866 1.913-8.33 9.78 5.5 12.008-62.334-2.723-3.574 102.426 48.618 25.695.464-93.904 127.153-15.15-.848-4.37-4.613-5.765zm-112.505 66.145l120.585-18.223-2.619-29.12-117.521 16.89-.445 30.453zm2.788 54.304l117.797-34.735v-25.394l-120.585 18.466 2.788 41.663zM372.454 123.736l-20.298-1.389-81.404-5.908.049.343-5.036-.343v14.088l7.077.626 14.708 103.495 64.614-3.23 13.053-92.084 7.237.639v-16.237zm-55.748-17.1l18.492 2.504 6.313-41.34-19.059-26.388-13.006 9.695 11.718 22.13-4.458 33.399zM220.602-75.898l-14.35 8.824.526-17.921L189.003-90l-8.387 12.558 5.797 14.466-12.757 19.79 9.272 11.568 14.485.58 12.177-19.793 17.09 2.078 6.021-17.031-12.1-10.114zm-44.504 55.94l21.615 2.192-2.31 42.457L181 60.797l-54.271 23.132-34.187-15.046L74 23.754l29.552-35.892 35.606-.522 24.515-21.894 12.425 14.596zM220.602 724.102l-14.35 8.824.526-17.921L189.003 710l-8.387 12.558 5.797 14.466-12.757 19.79 9.272 11.568 14.485.58 12.177-19.793 17.09 2.078 6.021-17.031-12.1-10.114zm-44.504 55.94l21.615 2.192-2.31 42.457L181 860.797l-54.271 23.132-34.187-15.046L74 823.754l29.552-35.892 35.606-.522 24.515-21.894 12.425 14.596zM689.83 251.337l-20.91-7.007 16.753-65.938 59.001-45.875h62.907l2.68 17.354-65.587 10.304-37.38 37.566-17.463 53.596zm102.464 12.858c-2.782 4.814-10.068 5.45-17.234 1.948-4.834-2.365-4.809-8.38-4.282-12.045a11.383 11.383 0 0 1 2.344-5.472c1.727-2.186 4.61-5.031 7.935-5.118 5.41-.142 10.067 2.282 12.698 6.666 2.637 4.377 1.318 9.198-1.461 14.02zm-16.872-80.797c1.379-5.293 7.864-6.082 11.111-6.14 1.23-.02 2.44.227 3.564.733 2.293 1.037 6.18 3.257 6.967 6.636 1.13 4.864.039 8.948-3.45 12.137-3.49 3.189-8.101 2.893-12.984 1.27-4.887-1.618-7.056-7.512-5.208-14.636zm-33.268 47.593c-3.474 2.926-7.233 3.731-11.26 2.234-4.025-1.5-5.694-5.345-6.396-9.957-.71-4.615 3.17-8.802 9.707-10.256 4.858-1.076 8.178 3.835 9.566 6.43.527.987.827 2.067.88 3.182.108 2.28-.082 6.334-2.497 8.367zm8.148-61.626L715.7 204.61l-15.865 49.244 132.824 44.502-21.49-139.07-60.868 10.08zM-108.684 251.337l-20.91-7.007 16.752-65.938 59.001-45.875H9.066l2.68 17.354-65.587 10.304-37.38 37.566-17.463 53.596zm102.463 12.858c-2.782 4.814-10.067 5.45-17.234 1.948-4.834-2.365-4.809-8.38-4.281-12.045a11.383 11.383 0 0 1 2.343-5.472c1.727-2.186 4.61-5.031 7.935-5.118 5.41-.142 10.067 2.282 12.698 6.666 2.637 4.377 1.318 9.198-1.461 14.02zm-16.872-80.797c1.379-5.293 7.864-6.082 11.111-6.14 1.23-.02 2.44.227 3.564.733 2.293 1.037 6.18 3.257 6.967 6.636 1.13 4.864.039 8.948-3.449 12.137-3.49 3.189-8.102 2.893-12.985 1.27-4.886-1.618-7.056-7.512-5.208-14.636zM-56.36 230.99c-3.474 2.926-7.233 3.731-11.26 2.234-4.025-1.5-5.694-5.345-6.396-9.957-.71-4.615 3.17-8.802 9.708-10.256 4.857-1.076 8.177 3.835 9.565 6.43.527.987.828 2.067.88 3.182.108 2.28-.082 6.334-2.497 8.367zm8.148-61.626l-34.6 35.244-15.866 49.244 132.824 44.502-21.49-139.07-60.868 10.08zM648.889-25.154l-32.267-9.665-1.265 31.584-5.515 1.603-8.189-37.67-19.383-5.805-7.858 29.751-5.248 1.221-1.4-35.317-21.805-6.533-13.128 29.558-3.826.698 1.044-32.62L497.163-60l-20.624 13.374-1.497 21.244 8.48 12.165L625.66 30.989l33.884-11.142 6.351-22.436-17.005-22.565zm10.554 53.122L615.59 45.775l-20.562-16.3-23.812 3.195-19.168-19.764-27.004 1.204-20.17-16.006-31.614-2.956L472 7.773l28.79 4.737 17.54 14.596 29.424 2.19 20.425 16.711 22.224-.65 22.432 14.811L663.98 39.32l-4.537-11.352zm-184.029-12.28l.782 13.79 4.812 8.944L603.6 84.23l22.63 3.024 21.482-6.432 10.312-13.538 1.527-15.037-34.254 13.848-15.298 1.615-134.585-52.021zM648.889 774.846l-32.267-9.665-1.265 31.584-5.515 1.603-8.189-37.67-19.383-5.805-7.858 29.751-5.248 1.221-1.4-35.317-21.805-6.533-13.128 29.558-3.826.698 1.044-32.62L497.163 740l-20.624 13.374-1.497 21.244 8.48 12.165 142.137 44.206 33.884-11.142 6.351-22.436-17.005-22.565zm10.554 53.122l-43.853 17.807-20.562-16.3-23.812 3.195-19.168-19.764-27.004 1.204-20.17-16.006-31.614-2.956-1.26 12.625 28.79 4.737 17.54 14.596 29.424 2.19 20.425 16.711 22.224-.65 22.432 14.811 51.145-20.848-4.537-11.352zm-184.029-12.28l.782 13.79 4.812 8.944L603.6 884.23l22.63 3.024 21.482-6.432 10.312-13.538 1.527-15.037-34.254 13.848-15.298 1.615-134.585-52.021zM364.7 478.578l60.696-13.154 12.602-9.56-7.644-21.154-18.76-.694 13.895-11.79-2.431-18.034-20.84-.753-1.817-11.733-32.284-6.935v-13.527l-15.197 8.323-5.167 13.386 7.556 14.77h-9.381l-17.286 7.68v15.607l16.22 9.596-21.85 7.144.76 23.434 8.943 9.48-6.458.584 8.383 74.819h14.9V494.36l10.257-1.891-2.582 63.598h16.81l5.036-62.785 8.606-.426-3.088 63.21h16.59l5.04-62.784 8.603-.426-3.088 63.21h15.193l13.66-82.3-75.878 4.812M761.464 485.102l9.153-45.332-.346-21.752-16.443-2.828.724-9.915 26.097 2.417 26.69 2.061-3.825 12.317-21.765-3.105-.62 16.437-13.197 51.445-6.468-1.745zm84.647-69.381l-13.35-27.678-86.374-2.183-19.977 24.738 11.512 47.911-1.88 62.548 27.282 14.881 44.254-34.458 40.618-58.59-2.085-27.17zm-22.754 104.851l-42.057 23.12-4.308-8.708 41.472-28.561 38.416-58.86-.768-24.352-7.563-23.31 6.795-4.29 15.119 31.263.417 29.182-47.523 64.516zM-37.05 485.102l9.152-45.332-.346-21.752-16.443-2.828.725-9.915 26.097 2.417 26.689 2.061-3.825 12.317-21.765-3.105-.62 16.437-13.196 51.445-6.469-1.745zm84.647-69.381l-13.351-27.678-86.374-2.183-19.977 24.738 11.512 47.911-1.88 62.548 27.283 14.881L9.063 501.48l40.618-58.59-2.084-27.17zM24.842 520.572l-42.057 23.12-4.308-8.708 41.472-28.561 38.416-58.86-.768-24.352-7.562-23.31 6.794-4.29 15.119 31.263.417 29.182-47.523 64.516zM538.99 162.236l-96.064 65 2.508 4.22 98.597-60.748-5.04-8.472zm33.023 37.552l-113.927 34.456.873 5.003 115.053-28.995-1.999-10.464zm-4.613 71.203l-148.38-.962 15.25 60.762 24.115 9.93-1.716 13.703 66.165 2.001.448-14.78 30.764-14.644 13.354-56.01zm-38.997-32.305l-12.914 13.022 23.416 12.548s9.405-20.304 7.71-19.643c-1.696.663-18.212-5.927-18.212-5.927zm-24.498-2.75l-24.724 7.246 3.847 18.004s21.169 2.397 21.46 1.132c.293-1.265-.583-26.382-.583-26.382zm-54.237 4.925l-10.442 17.809 17.013 3.411 5.354-6.86-11.925-14.36zM662.057 512.08h-6.325l3.162-9.873h5.93l-2.767 9.874zm-10.29 16.88l-13.982 1.822-2.463-5.722 16.705-2.47-.26 6.37zm-17.902 25.209l-6.956-5.209 3.556-4.737 7.906 3.947-4.506 5.999zm-21.035-67.097l-6.956-5.208 3.558-4.735 7.907 3.945-4.509 5.998zm-21.06 55.07l-25.548-9.037 1.42-15.048 28.59-23.202 20.221 9.746.886 20.14-25.569 17.401zm14.772 21.034l-2.325-9.365 5.445-3.21 1.986 9.569-5.106 3.006zm-22.727 10.617h-7.419v-7.55l7.419-1.58v9.13zm-19.75-13.924l-6.958-5.209 4.592-6.112 6.872 5.325-4.505 5.996zm-12.401-46.41l-3.223-3.995 5.233-4.206 3.223 3.994-5.233 4.206zm-.834 21.278l-4.94-1.402 1.837-6.453 4.94 1.402-1.837 6.453zM530.45 557.7l-1.374-5.756 9.652.54 1.469 6.142-9.746-.926zm-.628-39.62l9.143 9.092-5.19 5.823-8.876-10.856 4.923-4.058zm13.918-32.636l4.08 4.903-9.085 9.153-5.74-1.051 10.745-13.005zm20.912-1.244l14.697 4.572-1.637 6.14-16.097-5.103 3.037-5.609zm26.7-14.986l3.923 4.438-8.777 4.046-4.184-4.734 9.039-3.75zm36.976 10.775h4.946v-4.937h-4.946v4.937zm12.172 11.185l4.966 3.234-7.374 6.238-5.3-3.449 7.708-6.023zm28.588-27.072l-91.082-12.565-54.856 33.411-22.778 56.147 39.05 51.275 66.941-3.016 72.894-45.053 2.839-41.476-13.008-38.723zM187.698 524.659l-18.69 12.291-7.855 21.795-17.319 5.871-3.215 18.706-27.053 8.074-4.1 15.276-11.574-9.225 7.248-21.358 25.328-6.388 2.205-16.508 19.866-9.64 6.163-18.218 18.887-9.976-18.259-7.031-34.732 26.337-37.787 44.194-3.815 30.861-13.289 10.624-4.314 15.704 12.565 12.165 19.67-2.533 26.588-31.008 43.894-33.907 30.915-38.734 16.286-15.749 12.724-22.86-13.36-12.572-17.297 4.091-9.68 29.718zm53.44 27.53l-8.016 35.053-35.482 34.8-39.327 37.333-22.392 5.588-20.865-8.128-1.017-15.239 18.829-19.811 50.382-41.149 21.246-26.16 11.832-14.86 13.74-3.81 11.07 16.383zM426.57 677.201c-2.64 3.92-6.922 4.598-9.211 2.675-2.292-1.92-4.536-7.709 1.681-10.855 4.58-2.32 10.169 4.262 7.53 8.18zm8.068-42.837c4.873-2.467 10.819 4.537 8.01 8.705-2.807 4.17-7.363 4.889-9.8 2.844-2.436-2.043-4.825-8.2 1.79-11.55zm26.196 21.195c4.035-2.043 7.18 4.063 4.858 7.511-2.324 3.449-4.32 3.736-6.336 2.045-2.016-1.693-3.993-6.787 1.478-9.556zm-57.099-2.77c-2.72 4.039-5.056 4.376-7.415 2.396-2.359-1.98-4.673-7.944 1.731-11.185 4.721-2.39 8.403 4.755 5.684 8.79zm-18.34 42.679c-2.73.933-8.32-.52-7.139-8.126.87-5.603 8.943-6.1 10.37-1.306 1.423 4.794-.496 8.5-3.23 9.432zm107.087-28.123l-15.08-41.222-60.784-17.899-8.533 6.957-28.513-10.083-49.587 26.519-18.95 41.152-3.282 55.16c6.645 7.966 26.305 11.298 26.305 11.298l-15.86-28.537 18.817-11.68-11.893-25.444 17.536-8.855-.818-24.681 27.55-4.303 5.149-21.015 27.528 5.376-47.083 38.393-12.356 77.532 149.854-68.668zM776.054 680.504l14.491-18.714.799-21.468 13.342-14.217s4.891-14.887 4.946-15.024l-12.934-5.009-4.124 12.87-13.53 15.84-1.012 20.304-11.928 17.122 9.95 8.296zm37.706-31.832l-11.118-6.071-11.946 26.557-12.241 16.764-18.774-.881 9.735-27.8 2.025-27.5-13.924-1.7-1.815 27.257-9.64 29.104-1.494-.07 2.475-31.525 6.632-29.47-14.059-.195-5.836 28.073-.74 21.165-5.121-10.817 3.868-20.415-14.138-2.93-3.932 23.326 8.094 15.09-.172 6.624-9.358-.44 15.769 78.002 59.958 3.752 4.38-5.154 6.593-72.534-4.973-.232c8.716-16.812 19.5-37.591 19.752-37.98zM-21.973 680.504l14.49-18.714.799-21.468 13.343-14.217s4.89-14.887 4.946-15.024l-12.934-5.009-4.124 12.87-13.531 15.84-1.011 20.304-11.929 17.122 9.95 8.296zm37.706-31.832l-11.119-6.071-11.946 26.557-12.24 16.764-18.775-.881 9.736-27.8 2.024-27.5-13.923-1.7-1.816 27.257-9.64 29.104-1.494-.07 2.475-31.525 6.632-29.47-14.059-.195-5.836 28.073-.74 21.165-5.121-10.817 3.868-20.415-14.137-2.93-3.933 23.326 8.094 15.09-.172 6.624-9.358-.44 15.77 78.002 59.957 3.752 4.38-5.154 6.594-72.534-4.973-.232c8.715-16.812 19.5-37.591 19.752-37.98z"/></g></g></svg>
